<mxfile host="Electron" agent="Mozilla/5.0 (Windows NT 10.0; Win64; x64) AppleWebKit/537.36 (KHTML, like Gecko) draw.io/26.0.9 Chrome/128.0.6613.186 Electron/32.2.5 Safari/537.36" version="26.0.9">
  <diagram name="Page-1" id="xpZkZ2weexCkq__8deuh">
    <mxGraphModel dx="3193" dy="1176" grid="1" gridSize="10" guides="1" tooltips="1" connect="1" arrows="1" fold="1" page="1" pageScale="1" pageWidth="1100" pageHeight="850" background="#ffffff" math="0" shadow="1">
      <root>
        <mxCell id="0" />
        <mxCell id="1" parent="0" />
        <mxCell id="1AA3HkgsHGMT5kLfeeIE-18" value="Admin" style="text;html=1;align=center;verticalAlign=middle;whiteSpace=wrap;rounded=0;fillColor=#ffe6cc;strokeColor=#d79b00;" parent="1" vertex="1">
          <mxGeometry x="10" y="40" width="60" height="30" as="geometry" />
        </mxCell>
        <mxCell id="1AA3HkgsHGMT5kLfeeIE-25" style="edgeStyle=orthogonalEdgeStyle;rounded=0;orthogonalLoop=1;jettySize=auto;html=1;" parent="1" source="1AA3HkgsHGMT5kLfeeIE-19" edge="1">
          <mxGeometry relative="1" as="geometry">
            <mxPoint x="440" y="140" as="targetPoint" />
          </mxGeometry>
        </mxCell>
        <mxCell id="1AA3HkgsHGMT5kLfeeIE-19" value="End-User" style="text;html=1;align=center;verticalAlign=middle;whiteSpace=wrap;rounded=0;fillColor=#ffe6cc;strokeColor=#d79b00;" parent="1" vertex="1">
          <mxGeometry x="410" y="40" width="60" height="30" as="geometry" />
        </mxCell>
        <mxCell id="1AA3HkgsHGMT5kLfeeIE-29" style="edgeStyle=orthogonalEdgeStyle;rounded=0;orthogonalLoop=1;jettySize=auto;html=1;entryX=0.75;entryY=0;entryDx=0;entryDy=0;" parent="1" source="1AA3HkgsHGMT5kLfeeIE-20" target="1AA3HkgsHGMT5kLfeeIE-26" edge="1">
          <mxGeometry relative="1" as="geometry" />
        </mxCell>
        <mxCell id="1AA3HkgsHGMT5kLfeeIE-20" value="Provider" style="text;html=1;align=center;verticalAlign=middle;whiteSpace=wrap;rounded=0;fillColor=#ffe6cc;strokeColor=#d79b00;" parent="1" vertex="1">
          <mxGeometry x="800" y="40" width="70" height="30" as="geometry" />
        </mxCell>
        <mxCell id="1AA3HkgsHGMT5kLfeeIE-36" style="edgeStyle=orthogonalEdgeStyle;rounded=0;orthogonalLoop=1;jettySize=auto;html=1;entryX=0.5;entryY=0;entryDx=0;entryDy=0;" parent="1" source="1AA3HkgsHGMT5kLfeeIE-24" target="1AA3HkgsHGMT5kLfeeIE-43" edge="1">
          <mxGeometry relative="1" as="geometry">
            <mxPoint x="440" y="280" as="targetPoint" />
          </mxGeometry>
        </mxCell>
        <mxCell id="1AA3HkgsHGMT5kLfeeIE-24" value="Landing Module&lt;div&gt;(Index)&lt;/div&gt;" style="rounded=0;whiteSpace=wrap;html=1;" parent="1" vertex="1">
          <mxGeometry x="380" y="150" width="120" height="60" as="geometry" />
        </mxCell>
        <mxCell id="QlRVXzmJsD952vZSAEFp-61" style="edgeStyle=orthogonalEdgeStyle;rounded=1;orthogonalLoop=1;jettySize=auto;html=1;entryX=0.75;entryY=0;entryDx=0;entryDy=0;flowAnimation=1;curved=0;" edge="1" parent="1" source="1AA3HkgsHGMT5kLfeeIE-26" target="1AA3HkgsHGMT5kLfeeIE-50">
          <mxGeometry relative="1" as="geometry" />
        </mxCell>
        <mxCell id="QlRVXzmJsD952vZSAEFp-66" style="edgeStyle=orthogonalEdgeStyle;rounded=1;orthogonalLoop=1;jettySize=auto;html=1;entryX=0.956;entryY=0.33;entryDx=0;entryDy=0;flowAnimation=1;curved=0;entryPerimeter=0;" edge="1" parent="1" source="1AA3HkgsHGMT5kLfeeIE-26" target="1AA3HkgsHGMT5kLfeeIE-43">
          <mxGeometry relative="1" as="geometry">
            <Array as="points">
              <mxPoint x="600" y="180" />
              <mxPoint x="600" y="290" />
            </Array>
          </mxGeometry>
        </mxCell>
        <mxCell id="1AA3HkgsHGMT5kLfeeIE-26" value="Provider Module&lt;div&gt;&lt;br&gt;&lt;/div&gt;" style="rounded=0;whiteSpace=wrap;html=1;" parent="1" vertex="1">
          <mxGeometry x="720" y="150" width="120" height="60" as="geometry" />
        </mxCell>
        <mxCell id="1AA3HkgsHGMT5kLfeeIE-30" style="edgeStyle=orthogonalEdgeStyle;rounded=0;orthogonalLoop=1;jettySize=auto;html=1;entryX=0;entryY=0.5;entryDx=0;entryDy=0;" parent="1" source="1AA3HkgsHGMT5kLfeeIE-27" target="1AA3HkgsHGMT5kLfeeIE-24" edge="1">
          <mxGeometry relative="1" as="geometry" />
        </mxCell>
        <mxCell id="1AA3HkgsHGMT5kLfeeIE-33" style="edgeStyle=orthogonalEdgeStyle;rounded=0;orthogonalLoop=1;jettySize=auto;html=1;exitX=1;exitY=1;exitDx=0;exitDy=0;curved=1;" parent="1" source="1AA3HkgsHGMT5kLfeeIE-27" target="1AA3HkgsHGMT5kLfeeIE-26" edge="1">
          <mxGeometry relative="1" as="geometry">
            <Array as="points">
              <mxPoint x="120" y="10" />
              <mxPoint x="780" y="10" />
            </Array>
          </mxGeometry>
        </mxCell>
        <mxCell id="QlRVXzmJsD952vZSAEFp-40" style="edgeStyle=orthogonalEdgeStyle;rounded=1;orthogonalLoop=1;jettySize=auto;html=1;entryX=0.5;entryY=0;entryDx=0;entryDy=0;curved=0;flowAnimation=1;" edge="1" parent="1" source="1AA3HkgsHGMT5kLfeeIE-27" target="QlRVXzmJsD952vZSAEFp-37">
          <mxGeometry relative="1" as="geometry">
            <Array as="points">
              <mxPoint y="320" />
              <mxPoint x="-260" y="320" />
            </Array>
          </mxGeometry>
        </mxCell>
        <mxCell id="1AA3HkgsHGMT5kLfeeIE-27" value="Admin Module&lt;div&gt;&lt;br&gt;&lt;/div&gt;" style="rounded=0;whiteSpace=wrap;html=1;glass=0;shadow=0;" parent="1" vertex="1">
          <mxGeometry y="150" width="120" height="60" as="geometry" />
        </mxCell>
        <mxCell id="1AA3HkgsHGMT5kLfeeIE-28" style="edgeStyle=orthogonalEdgeStyle;rounded=0;orthogonalLoop=1;jettySize=auto;html=1;entryX=0.333;entryY=0;entryDx=0;entryDy=0;entryPerimeter=0;" parent="1" source="1AA3HkgsHGMT5kLfeeIE-18" target="1AA3HkgsHGMT5kLfeeIE-27" edge="1">
          <mxGeometry relative="1" as="geometry" />
        </mxCell>
        <mxCell id="1AA3HkgsHGMT5kLfeeIE-31" value="Data-Base&lt;div&gt;&lt;br&gt;&lt;/div&gt;" style="shape=cylinder3;whiteSpace=wrap;html=1;boundedLbl=1;backgroundOutline=1;size=15;rounded=0;shadow=0;" parent="1" vertex="1">
          <mxGeometry x="-200" y="140" width="60" height="80" as="geometry" />
        </mxCell>
        <mxCell id="1AA3HkgsHGMT5kLfeeIE-51" style="edgeStyle=orthogonalEdgeStyle;rounded=1;orthogonalLoop=1;jettySize=auto;html=1;entryX=0.5;entryY=0;entryDx=0;entryDy=0;shadow=0;curved=0;flowAnimation=1;" parent="1" source="1AA3HkgsHGMT5kLfeeIE-43" target="1AA3HkgsHGMT5kLfeeIE-44" edge="1">
          <mxGeometry relative="1" as="geometry" />
        </mxCell>
        <mxCell id="1AA3HkgsHGMT5kLfeeIE-52" style="edgeStyle=orthogonalEdgeStyle;rounded=1;orthogonalLoop=1;jettySize=auto;html=1;entryX=0.5;entryY=0;entryDx=0;entryDy=0;shadow=0;flowAnimation=1;curved=0;" parent="1" source="1AA3HkgsHGMT5kLfeeIE-43" target="1AA3HkgsHGMT5kLfeeIE-48" edge="1">
          <mxGeometry relative="1" as="geometry" />
        </mxCell>
        <mxCell id="1AA3HkgsHGMT5kLfeeIE-54" style="edgeStyle=orthogonalEdgeStyle;rounded=1;orthogonalLoop=1;jettySize=auto;html=1;entryX=0.5;entryY=0;entryDx=0;entryDy=0;shadow=0;curved=0;flowAnimation=1;" parent="1" source="1AA3HkgsHGMT5kLfeeIE-43" target="1AA3HkgsHGMT5kLfeeIE-47" edge="1">
          <mxGeometry relative="1" as="geometry">
            <Array as="points">
              <mxPoint x="330" y="315" />
            </Array>
          </mxGeometry>
        </mxCell>
        <mxCell id="1AA3HkgsHGMT5kLfeeIE-56" style="edgeStyle=orthogonalEdgeStyle;rounded=1;orthogonalLoop=1;jettySize=auto;html=1;shadow=0;curved=0;flowAnimation=1;" parent="1" source="1AA3HkgsHGMT5kLfeeIE-43" edge="1">
          <mxGeometry relative="1" as="geometry">
            <mxPoint x="590" y="450" as="targetPoint" />
          </mxGeometry>
        </mxCell>
        <mxCell id="1AA3HkgsHGMT5kLfeeIE-57" style="edgeStyle=orthogonalEdgeStyle;rounded=1;orthogonalLoop=1;jettySize=auto;html=1;entryX=0.5;entryY=0;entryDx=0;entryDy=0;shadow=0;curved=0;flowAnimation=1;" parent="1" source="1AA3HkgsHGMT5kLfeeIE-43" target="1AA3HkgsHGMT5kLfeeIE-50" edge="1">
          <mxGeometry relative="1" as="geometry" />
        </mxCell>
        <mxCell id="1AA3HkgsHGMT5kLfeeIE-43" value="WebSite" style="whiteSpace=wrap;html=1;aspect=fixed;rounded=0;" parent="1" vertex="1">
          <mxGeometry x="390" y="260" width="90" height="90" as="geometry" />
        </mxCell>
        <mxCell id="QlRVXzmJsD952vZSAEFp-2" style="edgeStyle=orthogonalEdgeStyle;rounded=0;orthogonalLoop=1;jettySize=auto;html=1;entryX=0.5;entryY=0;entryDx=0;entryDy=0;" edge="1" parent="1" source="1AA3HkgsHGMT5kLfeeIE-44" target="QlRVXzmJsD952vZSAEFp-1">
          <mxGeometry relative="1" as="geometry" />
        </mxCell>
        <mxCell id="1AA3HkgsHGMT5kLfeeIE-44" value="Services&lt;div&gt;Module&lt;/div&gt;" style="rounded=0;whiteSpace=wrap;html=1;" parent="1" vertex="1">
          <mxGeometry x="10" y="450" width="120" height="40" as="geometry" />
        </mxCell>
        <mxCell id="1AA3HkgsHGMT5kLfeeIE-45" value="Payment Gateway&lt;div&gt;Module&lt;/div&gt;" style="rounded=0;whiteSpace=wrap;html=1;shadow=0;" parent="1" vertex="1">
          <mxGeometry x="530" y="450" width="120" height="40" as="geometry" />
        </mxCell>
        <mxCell id="1AA3HkgsHGMT5kLfeeIE-46" value="Real Time&amp;nbsp;&lt;div&gt;Tracking Of Provider Locatoin&lt;/div&gt;" style="rounded=0;whiteSpace=wrap;html=1;shadow=0;" parent="1" vertex="1">
          <mxGeometry x="400" y="450" width="120" height="40" as="geometry" />
        </mxCell>
        <mxCell id="1AA3HkgsHGMT5kLfeeIE-47" value="Company&lt;div&gt;Module&lt;/div&gt;" style="rounded=0;whiteSpace=wrap;html=1;shadow=0;" parent="1" vertex="1">
          <mxGeometry x="270" y="450" width="120" height="40" as="geometry" />
        </mxCell>
        <mxCell id="1AA3HkgsHGMT5kLfeeIE-48" value="Authentication&lt;div&gt;Module&lt;/div&gt;" style="rounded=0;whiteSpace=wrap;html=1;shadow=0;" parent="1" vertex="1">
          <mxGeometry x="140" y="450" width="120" height="40" as="geometry" />
        </mxCell>
        <mxCell id="QlRVXzmJsD952vZSAEFp-46" style="edgeStyle=orthogonalEdgeStyle;rounded=1;orthogonalLoop=1;jettySize=auto;html=1;entryX=1;entryY=0.5;entryDx=0;entryDy=0;flowAnimation=1;curved=0;" edge="1" parent="1" source="1AA3HkgsHGMT5kLfeeIE-50" target="QlRVXzmJsD952vZSAEFp-47">
          <mxGeometry relative="1" as="geometry">
            <mxPoint x="940" y="1640" as="targetPoint" />
            <Array as="points">
              <mxPoint x="770" y="680" />
              <mxPoint x="540" y="680" />
              <mxPoint x="540" y="1520" />
            </Array>
          </mxGeometry>
        </mxCell>
        <mxCell id="1AA3HkgsHGMT5kLfeeIE-50" value="Provider" style="rounded=0;whiteSpace=wrap;html=1;shadow=0;" parent="1" vertex="1">
          <mxGeometry x="660" y="450" width="120" height="40" as="geometry" />
        </mxCell>
        <mxCell id="1AA3HkgsHGMT5kLfeeIE-55" style="edgeStyle=orthogonalEdgeStyle;rounded=1;orthogonalLoop=1;jettySize=auto;html=1;entryX=0.417;entryY=0;entryDx=0;entryDy=0;entryPerimeter=0;shadow=0;curved=0;flowAnimation=1;" parent="1" source="1AA3HkgsHGMT5kLfeeIE-43" target="1AA3HkgsHGMT5kLfeeIE-46" edge="1">
          <mxGeometry relative="1" as="geometry" />
        </mxCell>
        <mxCell id="1AA3HkgsHGMT5kLfeeIE-58" style="edgeStyle=orthogonalEdgeStyle;rounded=0;orthogonalLoop=1;jettySize=auto;html=1;entryX=1;entryY=0.5;entryDx=0;entryDy=0;entryPerimeter=0;flowAnimation=1;" parent="1" source="1AA3HkgsHGMT5kLfeeIE-27" target="1AA3HkgsHGMT5kLfeeIE-31" edge="1">
          <mxGeometry relative="1" as="geometry" />
        </mxCell>
        <mxCell id="QlRVXzmJsD952vZSAEFp-1" value="Number Of&amp;nbsp;&lt;div&gt;Services&lt;/div&gt;" style="rounded=0;whiteSpace=wrap;html=1;" vertex="1" parent="1">
          <mxGeometry x="10" y="660" width="120" height="40" as="geometry" />
        </mxCell>
        <mxCell id="QlRVXzmJsD952vZSAEFp-17" style="edgeStyle=orthogonalEdgeStyle;rounded=0;orthogonalLoop=1;jettySize=auto;html=1;entryX=0.5;entryY=0;entryDx=0;entryDy=0;" edge="1" parent="1" source="QlRVXzmJsD952vZSAEFp-7" target="QlRVXzmJsD952vZSAEFp-16">
          <mxGeometry relative="1" as="geometry">
            <Array as="points">
              <mxPoint x="-190" y="790" />
            </Array>
          </mxGeometry>
        </mxCell>
        <mxCell id="QlRVXzmJsD952vZSAEFp-7" value="Shipping" style="strokeWidth=2;html=1;shape=mxgraph.flowchart.start_1;whiteSpace=wrap;rounded=0;" vertex="1" parent="1">
          <mxGeometry x="-160" y="760" width="100" height="60" as="geometry" />
        </mxCell>
        <mxCell id="QlRVXzmJsD952vZSAEFp-8" value="Electrician" style="strokeWidth=2;html=1;shape=mxgraph.flowchart.start_1;whiteSpace=wrap;rounded=0;" vertex="1" parent="1">
          <mxGeometry x="200" y="760" width="100" height="60" as="geometry" />
        </mxCell>
        <mxCell id="QlRVXzmJsD952vZSAEFp-22" style="edgeStyle=orthogonalEdgeStyle;rounded=0;orthogonalLoop=1;jettySize=auto;html=1;entryX=0.5;entryY=0;entryDx=0;entryDy=0;" edge="1" parent="1" source="QlRVXzmJsD952vZSAEFp-9" target="QlRVXzmJsD952vZSAEFp-19">
          <mxGeometry relative="1" as="geometry" />
        </mxCell>
        <mxCell id="QlRVXzmJsD952vZSAEFp-9" value="Plumbing" style="strokeWidth=2;html=1;shape=mxgraph.flowchart.start_1;whiteSpace=wrap;rounded=0;" vertex="1" parent="1">
          <mxGeometry x="80" y="760" width="100" height="60" as="geometry" />
        </mxCell>
        <mxCell id="QlRVXzmJsD952vZSAEFp-21" style="edgeStyle=orthogonalEdgeStyle;rounded=0;orthogonalLoop=1;jettySize=auto;html=1;entryX=0.5;entryY=0;entryDx=0;entryDy=0;" edge="1" parent="1" source="QlRVXzmJsD952vZSAEFp-10" target="QlRVXzmJsD952vZSAEFp-18">
          <mxGeometry relative="1" as="geometry" />
        </mxCell>
        <mxCell id="QlRVXzmJsD952vZSAEFp-10" value="Rider" style="strokeWidth=2;html=1;shape=mxgraph.flowchart.start_1;whiteSpace=wrap;rounded=0;" vertex="1" parent="1">
          <mxGeometry x="-40" y="760" width="100" height="60" as="geometry" />
        </mxCell>
        <mxCell id="QlRVXzmJsD952vZSAEFp-11" style="edgeStyle=orthogonalEdgeStyle;rounded=0;orthogonalLoop=1;jettySize=auto;html=1;entryX=0.41;entryY=-0.05;entryDx=0;entryDy=0;entryPerimeter=0;" edge="1" parent="1" source="QlRVXzmJsD952vZSAEFp-1" target="QlRVXzmJsD952vZSAEFp-7">
          <mxGeometry relative="1" as="geometry" />
        </mxCell>
        <mxCell id="QlRVXzmJsD952vZSAEFp-13" style="edgeStyle=orthogonalEdgeStyle;rounded=0;orthogonalLoop=1;jettySize=auto;html=1;entryX=0.44;entryY=-0.05;entryDx=0;entryDy=0;entryPerimeter=0;" edge="1" parent="1" source="QlRVXzmJsD952vZSAEFp-1" target="QlRVXzmJsD952vZSAEFp-10">
          <mxGeometry relative="1" as="geometry">
            <Array as="points">
              <mxPoint x="4" y="680" />
            </Array>
          </mxGeometry>
        </mxCell>
        <mxCell id="QlRVXzmJsD952vZSAEFp-14" style="edgeStyle=orthogonalEdgeStyle;rounded=0;orthogonalLoop=1;jettySize=auto;html=1;entryX=0.5;entryY=0;entryDx=0;entryDy=0;entryPerimeter=0;" edge="1" parent="1" source="QlRVXzmJsD952vZSAEFp-1" target="QlRVXzmJsD952vZSAEFp-9">
          <mxGeometry relative="1" as="geometry">
            <Array as="points">
              <mxPoint x="130" y="720" />
              <mxPoint x="130" y="720" />
            </Array>
          </mxGeometry>
        </mxCell>
        <mxCell id="QlRVXzmJsD952vZSAEFp-15" style="edgeStyle=orthogonalEdgeStyle;rounded=0;orthogonalLoop=1;jettySize=auto;html=1;entryX=0.5;entryY=0;entryDx=0;entryDy=0;entryPerimeter=0;" edge="1" parent="1" source="QlRVXzmJsD952vZSAEFp-1" target="QlRVXzmJsD952vZSAEFp-8">
          <mxGeometry relative="1" as="geometry" />
        </mxCell>
        <mxCell id="QlRVXzmJsD952vZSAEFp-65" style="edgeStyle=orthogonalEdgeStyle;rounded=0;orthogonalLoop=1;jettySize=auto;html=1;entryX=0;entryY=0;entryDx=0;entryDy=52.5;entryPerimeter=0;flowAnimation=1;" edge="1" parent="1" source="QlRVXzmJsD952vZSAEFp-16" target="1AA3HkgsHGMT5kLfeeIE-31">
          <mxGeometry relative="1" as="geometry">
            <mxPoint x="-670" y="190" as="targetPoint" />
            <Array as="points">
              <mxPoint x="-400" y="890" />
              <mxPoint x="-400" y="192" />
            </Array>
          </mxGeometry>
        </mxCell>
        <mxCell id="QlRVXzmJsD952vZSAEFp-16" value="Shipping-Service Layout" style="rounded=0;whiteSpace=wrap;html=1;" vertex="1" parent="1">
          <mxGeometry x="-250" y="860" width="120" height="60" as="geometry" />
        </mxCell>
        <mxCell id="QlRVXzmJsD952vZSAEFp-28" style="edgeStyle=orthogonalEdgeStyle;rounded=0;orthogonalLoop=1;jettySize=auto;html=1;entryX=0.5;entryY=0;entryDx=0;entryDy=0;" edge="1" parent="1" source="QlRVXzmJsD952vZSAEFp-18" target="QlRVXzmJsD952vZSAEFp-27">
          <mxGeometry relative="1" as="geometry" />
        </mxCell>
        <mxCell id="QlRVXzmJsD952vZSAEFp-18" value="Ride-Service&amp;nbsp;&lt;div&gt;Layout&lt;/div&gt;" style="rounded=0;whiteSpace=wrap;html=1;" vertex="1" parent="1">
          <mxGeometry x="-80" y="860" width="120" height="60" as="geometry" />
        </mxCell>
        <mxCell id="QlRVXzmJsD952vZSAEFp-19" value="Plumbing-Service Layout" style="rounded=0;whiteSpace=wrap;html=1;" vertex="1" parent="1">
          <mxGeometry x="90" y="860" width="120" height="60" as="geometry" />
        </mxCell>
        <mxCell id="QlRVXzmJsD952vZSAEFp-20" value="Electrician-Service Layout" style="rounded=0;whiteSpace=wrap;html=1;" vertex="1" parent="1">
          <mxGeometry x="260" y="860" width="120" height="60" as="geometry" />
        </mxCell>
        <mxCell id="QlRVXzmJsD952vZSAEFp-23" style="edgeStyle=orthogonalEdgeStyle;rounded=0;orthogonalLoop=1;jettySize=auto;html=1;entryX=0.558;entryY=0.017;entryDx=0;entryDy=0;entryPerimeter=0;" edge="1" parent="1" source="QlRVXzmJsD952vZSAEFp-8" target="QlRVXzmJsD952vZSAEFp-20">
          <mxGeometry relative="1" as="geometry">
            <Array as="points">
              <mxPoint x="327" y="790" />
            </Array>
          </mxGeometry>
        </mxCell>
        <mxCell id="QlRVXzmJsD952vZSAEFp-35" style="edgeStyle=orthogonalEdgeStyle;rounded=0;orthogonalLoop=1;jettySize=auto;html=1;entryX=0.5;entryY=0;entryDx=0;entryDy=0;" edge="1" parent="1" source="QlRVXzmJsD952vZSAEFp-24" target="QlRVXzmJsD952vZSAEFp-34">
          <mxGeometry relative="1" as="geometry" />
        </mxCell>
        <mxCell id="QlRVXzmJsD952vZSAEFp-24" value="Price&lt;div&gt;Avalibility&lt;/div&gt;&lt;div&gt;Provider-Profile&lt;/div&gt;&lt;div&gt;Location&lt;/div&gt;&lt;div&gt;Rating&lt;/div&gt;&lt;div&gt;Experince&lt;/div&gt;" style="rounded=0;whiteSpace=wrap;html=1;" vertex="1" parent="1">
          <mxGeometry x="-80" y="1150" width="120" height="100" as="geometry" />
        </mxCell>
        <mxCell id="QlRVXzmJsD952vZSAEFp-29" style="edgeStyle=orthogonalEdgeStyle;rounded=0;orthogonalLoop=1;jettySize=auto;html=1;entryX=0.5;entryY=0;entryDx=0;entryDy=0;" edge="1" parent="1" source="QlRVXzmJsD952vZSAEFp-27" target="QlRVXzmJsD952vZSAEFp-24">
          <mxGeometry relative="1" as="geometry" />
        </mxCell>
        <mxCell id="QlRVXzmJsD952vZSAEFp-48" style="edgeStyle=orthogonalEdgeStyle;rounded=0;orthogonalLoop=1;jettySize=auto;html=1;entryX=0;entryY=0.5;entryDx=0;entryDy=0;curved=1;flowAnimation=1;" edge="1" parent="1" source="QlRVXzmJsD952vZSAEFp-27" target="QlRVXzmJsD952vZSAEFp-45">
          <mxGeometry relative="1" as="geometry">
            <Array as="points">
              <mxPoint x="-130" y="1050" />
              <mxPoint x="-130" y="1530" />
              <mxPoint x="-90" y="1530" />
            </Array>
          </mxGeometry>
        </mxCell>
        <mxCell id="QlRVXzmJsD952vZSAEFp-27" value="Authentication&lt;div&gt;Of&amp;nbsp;&lt;/div&gt;&lt;div&gt;User&lt;/div&gt;" style="rhombus;whiteSpace=wrap;html=1;rounded=0;" vertex="1" parent="1">
          <mxGeometry x="-80" y="990" width="120" height="120" as="geometry" />
        </mxCell>
        <mxCell id="QlRVXzmJsD952vZSAEFp-42" style="edgeStyle=orthogonalEdgeStyle;rounded=0;orthogonalLoop=1;jettySize=auto;html=1;entryX=0;entryY=0.5;entryDx=0;entryDy=0;" edge="1" parent="1" source="QlRVXzmJsD952vZSAEFp-34" target="QlRVXzmJsD952vZSAEFp-41">
          <mxGeometry relative="1" as="geometry" />
        </mxCell>
        <mxCell id="QlRVXzmJsD952vZSAEFp-34" value="Confirm-Service&lt;div&gt;By User&lt;/div&gt;" style="rounded=0;whiteSpace=wrap;html=1;" vertex="1" parent="1">
          <mxGeometry x="-80" y="1330" width="120" height="60" as="geometry" />
        </mxCell>
        <mxCell id="QlRVXzmJsD952vZSAEFp-39" style="edgeStyle=orthogonalEdgeStyle;rounded=1;orthogonalLoop=1;jettySize=auto;html=1;entryX=0;entryY=0.25;entryDx=0;entryDy=0;curved=0;flowAnimation=1;shadow=1;" edge="1" parent="1" source="QlRVXzmJsD952vZSAEFp-37" target="QlRVXzmJsD952vZSAEFp-1">
          <mxGeometry relative="1" as="geometry">
            <Array as="points">
              <mxPoint x="-260" y="670" />
            </Array>
          </mxGeometry>
        </mxCell>
        <mxCell id="QlRVXzmJsD952vZSAEFp-37" value="Add or Remove&lt;div&gt;Service Aggrement&lt;/div&gt;" style="rounded=0;whiteSpace=wrap;html=1;" vertex="1" parent="1">
          <mxGeometry x="-320" y="460" width="120" height="60" as="geometry" />
        </mxCell>
        <mxCell id="QlRVXzmJsD952vZSAEFp-43" style="edgeStyle=orthogonalEdgeStyle;rounded=1;orthogonalLoop=1;jettySize=auto;html=1;flowAnimation=1;curved=0;" edge="1" parent="1">
          <mxGeometry relative="1" as="geometry">
            <mxPoint x="390" y="1360.0588235294117" as="sourcePoint" />
            <mxPoint x="680.0588235294117" y="490" as="targetPoint" />
            <Array as="points">
              <mxPoint x="410" y="1360" />
              <mxPoint x="410" y="620" />
              <mxPoint x="680" y="620" />
            </Array>
          </mxGeometry>
        </mxCell>
        <mxCell id="QlRVXzmJsD952vZSAEFp-41" value="Notify To&lt;div&gt;The Provider&lt;/div&gt;" style="rounded=0;whiteSpace=wrap;html=1;" vertex="1" parent="1">
          <mxGeometry x="310" y="1335" width="120" height="50" as="geometry" />
        </mxCell>
        <mxCell id="QlRVXzmJsD952vZSAEFp-45" value="End Service&lt;div&gt;Processing&lt;/div&gt;" style="rounded=0;whiteSpace=wrap;html=1;" vertex="1" parent="1">
          <mxGeometry x="-90" y="1500" width="120" height="60" as="geometry" />
        </mxCell>
        <mxCell id="QlRVXzmJsD952vZSAEFp-49" style="edgeStyle=orthogonalEdgeStyle;rounded=0;orthogonalLoop=1;jettySize=auto;html=1;" edge="1" parent="1" source="QlRVXzmJsD952vZSAEFp-47">
          <mxGeometry relative="1" as="geometry">
            <mxPoint x="40" y="1529.9999999999995" as="targetPoint" />
          </mxGeometry>
        </mxCell>
        <mxCell id="QlRVXzmJsD952vZSAEFp-54" style="edgeStyle=orthogonalEdgeStyle;rounded=0;orthogonalLoop=1;jettySize=auto;html=1;entryX=0.5;entryY=0;entryDx=0;entryDy=0;" edge="1" parent="1" source="QlRVXzmJsD952vZSAEFp-47" target="QlRVXzmJsD952vZSAEFp-53">
          <mxGeometry relative="1" as="geometry" />
        </mxCell>
        <mxCell id="QlRVXzmJsD952vZSAEFp-47" value="ProvidingThe&amp;nbsp;&lt;div&gt;Services&lt;/div&gt;" style="rounded=0;whiteSpace=wrap;html=1;" vertex="1" parent="1">
          <mxGeometry x="240" y="1490" width="120" height="60" as="geometry" />
        </mxCell>
        <mxCell id="QlRVXzmJsD952vZSAEFp-50" value="End Of Service" style="rounded=0;whiteSpace=wrap;html=1;" vertex="1" parent="1">
          <mxGeometry x="40" y="1830" width="120" height="60" as="geometry" />
        </mxCell>
        <mxCell id="QlRVXzmJsD952vZSAEFp-55" style="edgeStyle=orthogonalEdgeStyle;rounded=0;orthogonalLoop=1;jettySize=auto;html=1;entryX=0;entryY=0.5;entryDx=0;entryDy=0;" edge="1" parent="1" source="QlRVXzmJsD952vZSAEFp-51" target="QlRVXzmJsD952vZSAEFp-50">
          <mxGeometry relative="1" as="geometry">
            <Array as="points">
              <mxPoint x="-30" y="1860" />
            </Array>
          </mxGeometry>
        </mxCell>
        <mxCell id="QlRVXzmJsD952vZSAEFp-51" value="Rating&amp;nbsp;" style="rounded=0;whiteSpace=wrap;html=1;" vertex="1" parent="1">
          <mxGeometry x="-90" y="1690" width="120" height="60" as="geometry" />
        </mxCell>
        <mxCell id="QlRVXzmJsD952vZSAEFp-52" style="edgeStyle=orthogonalEdgeStyle;rounded=0;orthogonalLoop=1;jettySize=auto;html=1;entryX=0.564;entryY=-0.001;entryDx=0;entryDy=0;entryPerimeter=0;" edge="1" parent="1" source="QlRVXzmJsD952vZSAEFp-45" target="QlRVXzmJsD952vZSAEFp-51">
          <mxGeometry relative="1" as="geometry" />
        </mxCell>
        <mxCell id="QlRVXzmJsD952vZSAEFp-56" style="edgeStyle=orthogonalEdgeStyle;rounded=0;orthogonalLoop=1;jettySize=auto;html=1;entryX=1;entryY=0.5;entryDx=0;entryDy=0;exitX=0.5;exitY=1;exitDx=0;exitDy=0;" edge="1" parent="1" source="QlRVXzmJsD952vZSAEFp-53" target="QlRVXzmJsD952vZSAEFp-50">
          <mxGeometry relative="1" as="geometry">
            <Array as="points">
              <mxPoint x="240" y="1860" />
            </Array>
          </mxGeometry>
        </mxCell>
        <mxCell id="QlRVXzmJsD952vZSAEFp-53" value="Complete The Service&lt;div&gt;By Confimration Processing&lt;/div&gt;" style="rounded=0;whiteSpace=wrap;html=1;" vertex="1" parent="1">
          <mxGeometry x="180" y="1690" width="120" height="60" as="geometry" />
        </mxCell>
        <mxCell id="QlRVXzmJsD952vZSAEFp-57" value="Payment GateWay" style="whiteSpace=wrap;html=1;aspect=fixed;rounded=0;" vertex="1" parent="1">
          <mxGeometry x="-400" y="1060" width="80" height="80" as="geometry" />
        </mxCell>
        <mxCell id="QlRVXzmJsD952vZSAEFp-63" value="&lt;h1 style=&quot;margin-top: 0px;&quot;&gt;Admin: Curve&lt;/h1&gt;&lt;h1 style=&quot;margin-top: 0px;&quot;&gt;User : Round&lt;/h1&gt;&lt;h1 style=&quot;margin-top: 0px;&quot;&gt;Provider : Sharp&amp;nbsp;&lt;/h1&gt;" style="text;html=1;whiteSpace=wrap;overflow=hidden;rounded=0;" vertex="1" parent="1">
          <mxGeometry x="-1090" y="20" width="200" height="120" as="geometry" />
        </mxCell>
      </root>
    </mxGraphModel>
  </diagram>
</mxfile>
